<svg width="32" height="32" viewBox="0 0 32 32" fill="none" xmlns="http://www.w3.org/2000/svg">
<g clip-path="url(#clip0_10_4610)">
<rect width="32" height="32" fill="#201F24"/>
<path d="M14.4473 18.2933L22.6173 10.2559C22.6947 10.5279 22.6813 10.8206 22.5767 11.0893L18.41 21.8093C18.1467 22.4866 17.3887 22.8346 16.7167 22.5859C16.5529 22.5255 16.4035 22.4319 16.2776 22.311C16.1518 22.1901 16.0523 22.0444 15.9853 21.8833L14.6647 18.7033C14.6047 18.5593 14.5313 18.4213 14.4473 18.2919V18.2933ZM13.5073 17.4346C13.4384 17.3985 13.3679 17.3656 13.296 17.3359L10.116 16.0153C9.45668 15.7399 9.15468 14.9766 9.44335 14.3099C9.51424 14.1466 9.61678 13.999 9.74505 13.8755C9.87332 13.752 10.0248 13.6552 10.1907 13.5906L20.9107 9.42392C21.2173 9.30459 21.5373 9.30725 21.8207 9.40725L13.5073 17.4346Z" fill="white"/>
</g>
<defs>
<clipPath id="clip0_10_4610">
<rect width="32" height="32" fill="white"/>
</clipPath>
</defs>
</svg>
